<?xml version="1.0" standalone="no"?>
<!DOCTYPE svg PUBLIC "-//W3C//DTD SVG 20010904//EN"
 "http://www.w3.org/TR/2001/REC-SVG-20010904/DTD/svg10.dtd">
<svg version="1.0" xmlns="http://www.w3.org/2000/svg"
 width="1001.000000pt" height="1001.000000pt" viewBox="0 0 1001.000000 1001.000000"
 preserveAspectRatio="xMidYMid meet">

<g transform="translate(0.000000,1001.000000) scale(0.100000,-0.100000)"
fill="#000000" stroke="none">
<path d="M5163 6409 c-298 -43 -573 -286 -649 -574 -24 -94 -30 -265 -10 -358
34 -165 127 -332 242 -435 60 -53 76 -78 223 -342 307 -549 286 -515 312 -515
26 0 9 -29 313 535 139 256 146 268 232 355 92 93 139 162 179 262 54 133 69
313 40 461 -19 94 -96 255 -157 329 -130 156 -314 257 -518 282 -95 12 -119
12 -207 0z m287 -285 c90 -26 151 -63 221 -134 104 -106 148 -213 149 -362 0
-232 -163 -445 -387 -503 -172 -45 -361 7 -488 133 -176 175 -208 445 -77 648
74 114 192 198 312 223 30 6 64 13 75 15 32 7 135 -4 195 -20z"/>
<path d="M5096 5897 c-50 -33 -116 -115 -116 -147 0 -20 -57 -99 -83 -115 -36
-22 -25 -37 27 -34 46 3 97 -6 168 -28 26 -8 54 -13 62 -10 22 9 56 -35 56
-72 0 -18 9 -44 19 -57 11 -14 17 -33 14 -44 -5 -18 0 -20 36 -20 35 0 41 -3
41 -22 0 -12 3 -18 7 -15 3 4 14 0 23 -8 16 -14 20 -13 52 17 107 103 210 152
246 116 8 -8 12 -9 12 -1 0 6 -6 14 -12 17 -10 4 -10 7 -1 12 17 8 57 44 49
44 -17 0 16 39 36 42 25 4 37 28 14 28 -9 0 -25 6 -36 12 -16 10 -24 10 -40 0
-11 -6 -28 -12 -37 -12 -10 0 -27 -7 -37 -15 -35 -26 -63 -17 -57 18 1 4 -6
10 -14 13 -19 7 -20 75 -3 92 10 10 10 15 -2 22 -8 6 -21 8 -27 5 -17 -6 -36
32 -35 67 0 15 -3 30 -8 33 -5 3 -7 12 -4 19 7 20 -23 39 -48 32 -13 -4 -43
-9 -68 -12 -25 -3 -48 -11 -52 -17 -5 -8 -8 -7 -8 3 0 13 -1 13 -10 0 -8 -13
-11 -12 -16 6 -4 17 -16 23 -52 27 -26 3 -54 8 -62 11 -8 3 -23 -1 -34 -7z"/>
<path d="M1348 5300 c-146 -25 -227 -158 -199 -330 16 -98 46 -145 174 -273
127 -128 156 -172 164 -251 7 -64 -13 -108 -56 -126 -68 -28 -122 23 -125 116
l-1 59 -84 3 -84 3 5 -83 c12 -182 87 -257 256 -258 90 0 129 12 180 55 62 52
77 95 77 225 0 159 -15 188 -184 357 -99 100 -130 137 -139 169 -31 108 0 180
78 178 58 -2 74 -22 80 -97 l5 -62 83 -3 82 -3 0 54 c0 188 -128 297 -312 267z"/>
<path d="M7059 5300 c-102 -17 -167 -71 -194 -162 -12 -42 -15 -117 -15 -414
0 -339 1 -367 20 -417 37 -99 120 -149 247 -149 136 1 227 68 253 187 8 33 10
171 8 415 l-3 365 -26 50 c-32 61 -51 78 -109 103 -55 24 -120 32 -181 22z
m96 -164 c23 -10 37 -24 42 -43 10 -37 10 -689 0 -726 -10 -37 -64 -61 -110
-49 -22 5 -37 18 -49 42 -16 31 -18 71 -18 370 0 396 3 408 93 419 4 1 23 -5
42 -13z"/>
<path d="M1895 5278 c-4 -14 -161 -982 -171 -1060 l-7 -48 80 0 80 0 12 93
c19 139 7 127 122 127 54 0 99 -3 99 -7 0 -5 7 -51 15 -103 8 -52 15 -98 15
-102 0 -5 38 -8 85 -8 82 0 85 1 85 23 0 12 -40 263 -88 557 l-88 535 -117 3
c-89 2 -118 -1 -122 -10z m155 -466 c20 -141 35 -260 33 -264 -2 -5 -38 -8
-80 -8 l-76 0 6 38 c3 20 20 142 38 270 18 128 34 230 38 227 3 -3 22 -122 41
-263z"/>
<path d="M2400 4730 l0 -560 75 0 75 0 1 418 c0 244 4 407 9 392 5 -14 20
-104 35 -200 14 -96 40 -272 58 -390 l32 -215 72 -3 c68 -3 73 -2 78 20 3 13
30 192 60 398 31 206 58 380 60 385 2 6 4 -173 4 -397 l1 -408 85 0 85 0 0
560 0 560 -125 0 -124 0 -6 -32 c-3 -18 -28 -195 -55 -392 -28 -198 -52 -362
-55 -364 -3 -3 -5 -2 -5 3 0 13 -100 728 -106 758 l-6 27 -124 0 -124 0 0
-560z"/>
<path d="M3260 4731 l0 -561 90 0 90 0 0 230 0 230 73 0 c92 0 139 13 183 52
64 57 78 97 82 243 5 152 -7 217 -49 275 -52 71 -94 84 -296 88 l-173 4 0
-561z m305 387 c35 -16 48 -72 43 -190 -5 -125 -15 -138 -105 -138 l-63 0 0
170 0 170 50 0 c27 0 61 -5 75 -12z"/>
<path d="M3955 5268 c-3 -13 -23 -138 -46 -278 -22 -140 -61 -376 -85 -524
-24 -148 -44 -275 -44 -282 0 -11 19 -14 79 -14 l79 0 6 48 c4 26 12 75 18
110 l10 62 98 0 c113 0 101 13 121 -132 l12 -88 89 0 c87 0 88 0 83 23 -5 20
-98 590 -156 955 l-23 142 -118 0 c-114 0 -118 -1 -123 -22z m154 -435 c18
-131 35 -250 38 -265 l6 -28 -82 0 -82 0 6 33 c9 54 65 467 65 482 0 8 4 15 8
15 4 0 23 -107 41 -237z"/>
<path d="M6192 4733 l3 -558 88 -3 87 -3 0 229 0 230 93 4 c116 5 167 29 212
102 l30 49 0 171 c0 156 -2 175 -22 211 -25 47 -54 75 -103 101 -29 15 -64 19
-213 22 l-177 4 2 -559z m319 378 c23 -18 24 -25 24 -150 0 -117 -2 -132 -20
-150 -18 -18 -71 -26 -132 -22 -10 1 -13 42 -13 171 l0 170 59 0 c43 0 65 -5
82 -19z"/>
<path d="M7507 5263 c-4 -3 -7 -253 -7 -554 l0 -549 23 -5 c12 -3 52 -5 87 -3
l65 3 3 558 2 557 -83 0 c-46 0 -87 -3 -90 -7z"/>
<path d="M7812 4713 l3 -558 54 -3 c30 -2 65 -1 78 3 l23 5 2 397 3 397 100
-389 c55 -213 106 -395 114 -402 9 -10 35 -13 90 -11 l76 3 3 558 2 558 -77
-3 -78 -3 -2 -314 c-1 -172 -4 -315 -6 -317 -1 -2 -36 126 -76 284 -41 158
-78 302 -83 320 l-9 32 -110 0 -109 0 2 -557z"/>
<path d="M8452 5193 l3 -78 87 -3 88 -3 2 -477 3 -477 65 -3 c35 -2 75 0 87 3
l23 5 -2 475 -3 474 90 3 90 3 3 78 3 77 -271 0 -271 0 3 -77z"/>
</g>
</svg>
